:FULLY-SPECIFIED
:FORCE-ALL-JOINTS-BE-3DOF
:DEGREES
408
root 4.55728 16.2682 -11.2 2.73562 -37.8174 -2.7979
lfemur -28.5143 5.39946 -8.58466
ltibia 44.4952 -0 0
lfoot -11.0628 14.046 -0.0162366
ltoes 0.547909 -0 0
rfemur -39.1433 -21.2849 25.7059
rtibia 77.908 -0 0
rfoot 5.06832 -2.11087 0.0204751
rtoes 35.8328 -0 0
lowerback 5.27113 4.40197 0.376221
upperback 1.70482 5.83426 -1.84051
thorax -0.949899 2.91486 -2.42993
lowerneck -6.32744 2.56364 7.70358
upperneck 4.17445 2.7439 0.0414866
head 2.59366 1.48989 -1.21719
lclavicle 4.31363e-14 -7.15625e-15 0
lhumerus -44.9244 -17.837 94.0995
lradius 50.0787 -0 0
lwrist 17.7665 0 0
lhand -17.937 2.67633 0.0702462
lfingers 7.12502 -0 0
lthumb 8.33013 32.4662 0.0643621
rclavicle 4.31363e-14 -7.15625e-15 0
rhumerus -45.0418 9.87167 -91.2895
rradius 63.4925 -0 0
rwrist 8.94337 0 0
rhand -20.716 -17.0205 -0.0819618
rfingers 7.12502 -0 0
rthumb 5.648 -46.9192 -0.0765164
409
root 4.5093 16.247 -11.0945 2.44443 -38.2868 -2.53311
lfemur -28.1483 6.07833 -8.81024
ltibia 45.3 -0 0
lfoot -11.8722 13.7858 -0.0265261
ltoes 0.840954 -0 0
rfemur -41.0635 -21.349 25.4523
rtibia 77.8688 -0 0
rfoot 4.95518 -1.82693 0.00760411
rtoes 35.9848 -0 0
lowerback 5.47028 4.37092 0.351029
upperback 1.74075 5.78812 -1.91078
thorax -1.02041 2.89114 -2.50031
lowerneck -6.34094 2.82287 7.88247
upperneck 4.21163 3.09222 -0.303187
head 2.63725 1.65683 -1.34615
lclavicle 4.31363e-14 -7.15625e-15 0
lhumerus -44.909 -17.6744 94.1066
lradius 49.8158 -0 0
lwrist 17.5201 0 0
lhand -18.4968 2.32679 0.0723125
lfingers 7.12502 -0 0
lthumb 7.7899 32.1369 0.0662668
rclavicle 4.31363e-14 -7.15625e-15 0
rhumerus -44.9936 9.70155 -91.0388
rradius 64.0093 -0 0
rwrist 9.13858 0 0
rhand -21.232 -16.8945 -0.0924162
rfingers 7.12502 -0 0
rthumb 5.14973 -46.8071 -0.0863737
410
root 4.45932 16.2248 -10.9917 2.17259 -38.6809 -2.29516
lfemur -27.8236 6.76623 -9.00736
ltibia 46.1167 -0 0
lfoot -12.7026 13.4912 -0.0359592
ltoes 1.12861 -0 0
rfemur -42.886 -21.3332 25.1458
rtibia 77.6881 -0 0
rfoot 4.76547 -1.54457 -0.0048245
rtoes 35.9558 -0 0
lowerback 5.66725 4.33137 0.340649
upperback 1.77694 5.73158 -1.97261
thorax -1.08968 2.86214 -2.56957
lowerneck -6.3552 3.07464 8.05492
upperneck 4.24018 3.43107 -0.644802
head 2.67802 1.81894 -1.47324
lclavicle 4.31363e-14 -7.15625e-15 0
lhumerus -44.8813 -17.5385 94.1175
lradius 49.5632 -0 0
lwrist 17.2613 0 0
lhand -19.0544 1.97577 0.0706647
lfingers 7.12502 -0 0
lthumb 7.25176 31.8062 0.0647897
rclavicle 4.31363e-14 -7.15625e-15 0
rhumerus -44.9459 9.52054 -90.7922
rradius 64.5218 -0 0
rwrist 9.34253 0 0
rhand -21.7594 -16.7945 -0.099116
rfingers 7.12502 -0 0
rthumb 4.6405 -46.7204 -0.0927219
411
root 4.40673 16.2014 -10.8917 1.92774 -38.9811 -2.09484
lfemur -27.5466 7.44334 -9.16418
ltibia 46.9379 -0 0
lfoot -13.5441 13.1597 -0.0436748
ltoes 1.38644 -0 0
rfemur -44.5613 -21.2354 24.7718
rtibia 77.3682 -0 0
rfoot 4.51046 -1.27386 -0.0154931
rtoes 35.7083 -0 0
lowerback 5.85767 4.2831 0.345561
upperback 1.81205 5.66455 -2.02423
thorax -1.15685 2.82785 -2.63582
lowerneck -6.37009 3.31374 8.21805
upperneck 4.26113 3.75322 -0.975695
head 2.71557 1.97283 -1.59578
lclavicle 4.31363e-14 -7.15625e-15 0
lhumerus -44.8425 -17.4371 94.1345
lradius 49.3265 -0 0
lwrist 16.9922 0 0
lhand -19.5948 1.62999 0.065437
lfingers 7.12502 -0 0
lthumb 6.7302 31.4801 0.0600485
rclavicle 4.31363e-14 -7.15625e-15 0
rhumerus -44.9054 9.32371 -90.5532
rradius 65.0233 -0 0
rwrist 9.5512 0 0
rhand -22.2966 -16.7287 -0.101314
rfingers 7.12502 -0 0
rthumb 4.12178 -46.6669 -0.094855
412
root 4.35096 16.1769 -10.7945 1.71772 -39.1691 -1.94317
lfemur -27.3234 8.08979 -9.26913
ltibia 47.7562 -0 0
lfoot -14.3873 12.7888 -0.0487994
ltoes 1.59001 -0 0
rfemur -46.0407 -21.0532 24.3162
rtibia 76.9116 -0 0
rfoot 4.20146 -1.02488 -0.0233089
rtoes 35.2049 -0 0
lowerback 6.03715 4.22586 0.366251
upperback 1.84473 5.58696 -2.06386
thorax -1.22105 2.78823 -2.6972
lowerneck -6.38553 3.53494 8.36896
upperneck 4.27564 4.05148 -1.28818
head 2.74953 2.11513 -1.71108
lclavicle 4.31363e-14 -7.15625e-15 0
lhumerus -44.7933 -17.378 94.16
lradius 49.1109 -0 0
lwrist 16.7148 0 0
lhand -20.1031 1.29615 0.0570677
lfingers 7.12502 -0 0
lthumb 6.23968 31.1649 0.0524351
rclavicle 4.31363e-14 -7.15625e-15 0
rhumerus -44.8786 9.10625 -90.3249
rradius 65.5075 -0 0
rwrist 9.7606 0 0
rhand -22.8421 -16.7053 -0.0984374
rfingers 7.12502 -0 0
rthumb 3.59503 -46.6545 -0.0922285
413
root 4.29143 16.1511 -10.7002 1.55028 -39.2264 -1.85113
lfemur -27.1595 8.68569 -9.3108
ltibia 48.564 -0 0
lfoot -15.2223 12.376 -0.050417
ltoes 1.71488 -0 0
rfemur -47.2762 -20.7833 23.7665
rtibia 76.3206 -0 0
rfoot 3.84977 -0.807727 -0.0274408
rtoes 34.4083 -0 0
lowerback 6.2013 4.15943 0.403217
upperback 1.87362 5.49869 -2.08973
thorax -1.28145 2.74325 -2.75183
lowerneck -6.40147 3.73302 8.50478
upperneck 4.28503 4.31865 -1.57453
head 2.77956 2.24245 -1.81647
lclavicle 4.31363e-14 -7.15625e-15 0
lhumerus -44.7349 -17.3689 94.1963
lradius 48.922 -0 0
lwrist 16.4312 0 0
lhand -20.5641 0.980919 0.0462732
lfingers 7.12502 -0 0
lthumb 5.79468 30.8667 0.0425922
rclavicle 4.31363e-14 -7.15625e-15 0
rhumerus -44.8722 8.86335 -90.1108
rradius 65.9677 -0 0
rwrist 9.96671 0 0
rhand -23.3945 -16.7325 -0.0900866
rfingers 7.12502 -0 0
rthumb 3.06169 -46.6913 -0.0844612
414
root 4.22755 16.1239 -10.609 1.4327 -39.1347 -1.82929
lfemur -27.0608 9.2113 -9.27789
ltibia 49.354 -0 0
lfoot -16.0396 11.9186 -0.0475354
ltoes 1.73661 -0 0
rfemur -48.221 -20.4212 23.1117
rtibia 75.5975 -0 0
rfoot 3.4667 -0.632527 -0.0273348
rtoes 33.281 -0 0
lowerback 6.34572 4.08361 0.456973
upperback 1.89734 5.39967 -2.10008
thorax -1.33718 2.6929 -2.79783
lowerneck -6.41791 3.90275 8.62263
upperneck 4.29072 4.54755 -1.82701
head 2.80531 2.35138 -1.90925
lclavicle 4.31363e-14 -7.15625e-15 0
lhumerus -44.6681 -17.4177 94.2458
lradius 48.765 -0 0
lwrist 16.1434 0 0
lhand -20.9631 0.690976 0.034005
lfingers 7.12502 -0 0
lthumb 5.40967 30.5916 0.0313756
rclavicle 4.31363e-14 -7.15625e-15 0
rhumerus -44.8927 8.59025 -89.914
rradius 66.3975 -0 0
rwrist 10.1655 0 0
rhand -23.9521 -16.8185 -0.0760372
rfingers 7.12502 -0 0
rthumb 2.52321 -46.7851 -0.071335
415
root 4.15874 16.0954 -10.5209 1.37133 -38.8754 -1.88738
lfemur -27.033 9.64703 -9.15903
ltibia 50.1187 -0 0
lfoot -16.8296 11.4142 -0.0390481
ltoes 1.63076 -0 0
rfemur -48.8299 -19.9604 22.3428
rtibia 74.7447 -0 0
rfoot 3.06355 -0.509412 -0.022711
rtoes 31.7858 -0 0
lowerback 6.46601 3.9982 0.52805
upperback 1.91451 5.28979 -2.09309
thorax -1.3874 2.63715 -2.83333
lowerneck -6.43484 4.0389 8.71961
upperneck 4.2942 4.73103 -2.03786
head 2.82648 2.43855 -1.98676
lclavicle 4.31363e-14 -7.15625e-15 0
lhumerus -44.5941 -17.532 94.3107
lradius 48.6454 -0 0
lwrist 15.8535 0 0
lhand -21.2849 0.432962 0.0213886
lfingers 7.12502 -0 0
lthumb 5.09908 30.3456 0.0198002
rclavicle 4.31363e-14 -7.15625e-15 0
rhumerus -44.9466 8.28223 -89.7374
rradius 66.7905 -0 0
rwrist 10.353 0 0
rhand -24.5137 -16.9715 -0.0562365
rfingers 7.12502 -0 0
rthumb 1.981 -46.9441 -0.0527921
416
root 4.08441 16.0654 -10.436 1.37117 -38.4299 -2.03396
lfemur -27.082 9.97361 -8.9427
ltibia 50.8507 -0 0
lfoot -17.5828 10.8599 -0.0236919
ltoes 1.3729 -0 0
rfemur -49.0592 -19.3916 21.4539
rtibia 73.7646 -0 0
rfoot 2.65163 -0.448522 -0.0135403
rtoes 29.8852 -0 0
lowerback 6.55774 3.90305 0.617004
upperback 1.92373 5.16898 -2.067
thorax -1.43128 2.57599 -2.85649
lowerneck -6.45226 4.13623 8.79285
upperneck 4.29697 4.86194 -2.19927
head 2.84275 2.50056 -2.04632
lclavicle 4.31363e-14 -7.15625e-15 0
lhumerus -44.5139 -17.7198 94.3933
lradius 48.5685 -0 0
lwrist 15.5634 0 0
lhand -21.5146 0.213507 0.00964594
lfingers 7.12502 -0 0
lthumb 4.87737 30.135 0.00897128
rclavicle 4.31363e-14 -7.15625e-15 0
rhumerus -45.0404 7.93455 -89.5842
rradius 67.1401 -0 0
rwrist 10.5252 0 0
rhand -25.0776 -17.1997 -0.0307991
rfingers 7.12502 -0 0
rthumb 1.43645 -47.176 -0.0289309
